<?xml version="1.0" encoding="UTF-8"?> <svg xmlns="http://www.w3.org/2000/svg" width="160" height="160" viewBox="0 0 160 160" fill="none"> <path d="M76.3426 33.1602V111.254C65.9966 111.239 56.0795 107.118 48.769 99.7972C41.4586 92.4761 37.3525 82.553 37.3525 72.207C37.3525 61.861 41.4586 51.9378 48.769 44.6168C56.0795 37.2957 65.9966 33.1752 76.3426 33.1602V33.1602Z" fill="#FFCC9E"></path> <path d="M76.3428 72.207H115.39C115.39 77.3349 114.381 82.4127 112.419 87.1504C110.457 91.888 107.58 96.1928 103.955 99.8187C100.329 103.445 96.0238 106.321 91.2861 108.283C86.5484 110.245 81.4707 111.255 76.3428 111.254V72.207Z" fill="#1B8381"></path> <path d="M76.3427 72.207V111.254C71.2149 111.255 66.1371 110.245 61.3994 108.283C56.6617 106.321 52.357 103.445 48.731 99.8187C45.1051 96.1928 42.2289 91.888 40.2669 87.1504C38.3048 82.4127 37.2953 77.3349 37.2959 72.207H76.3427Z" fill="#00CDA9"></path> <path d="M103.955 99.8186C100.329 103.445 96.0243 106.322 91.2866 108.284C86.5488 110.246 81.4708 111.255 76.3428 111.254V72.207L103.955 99.8186Z" fill="#00A38F"></path> <path opacity="0.3" d="M115.396 72.207C115.397 79.9297 113.107 87.4792 108.817 93.9006C104.526 100.322 98.4281 105.327 91.2932 108.282C84.1582 111.237 76.3071 112.01 68.7329 110.503C61.1586 108.996 54.2014 105.276 48.7412 99.815H48.7264C41.4998 92.5891 37.4023 82.8128 37.3173 72.5937C37.3049 72.4652 37.2999 72.3361 37.3024 72.207C37.3036 61.8515 41.4179 51.9205 48.7403 44.5981C56.0628 37.2756 65.9938 33.1614 76.3493 33.1602V72.207L115.396 72.207Z" fill="url(#paint0_linear_1006_137841)"></path> <path d="M135.016 60.6789H89.3584V15.021C98.6416 15.0089 107.706 17.8406 115.331 23.1351C117.594 24.6879 119.708 26.4479 121.645 28.3923C125.89 32.6285 129.256 37.6613 131.551 43.202C133.845 48.7426 135.023 54.6819 135.016 60.6789Z" fill="#7DF8C4"></path> <path d="M101.781 40.8042C100.507 40.7922 99.289 40.2776 98.3921 39.3723C97.4953 38.4669 96.9922 37.2442 96.9922 35.9698C96.9922 34.6955 97.4953 33.4727 98.3921 32.5674C99.289 31.6621 100.507 31.1475 101.781 31.1355C102.42 31.1294 103.053 31.25 103.645 31.4903C104.237 31.7305 104.775 32.0857 105.229 32.5352C105.683 32.9847 106.043 33.5197 106.289 34.1092C106.535 34.6987 106.661 35.3311 106.661 35.9698C106.661 36.6086 106.535 37.241 106.289 37.8305C106.043 38.42 105.683 38.955 105.229 39.4045C104.775 39.854 104.237 40.2091 103.645 40.4494C103.053 40.6896 102.42 40.8102 101.781 40.8042ZM113.422 31.1355H117.137L103.932 50.8758H100.217L113.422 31.1355ZM101.767 37.9202C102.284 37.9326 102.784 37.7417 103.161 37.3886C103.538 37.0355 103.761 36.5485 103.782 36.0325C103.781 35.4983 103.569 34.9861 103.191 34.6082C102.814 34.2303 102.302 34.0174 101.767 34.0163C101.25 34.0364 100.762 34.2591 100.408 34.6364C100.054 35.0138 99.8629 35.5153 99.8758 36.0325C99.8823 36.5319 100.084 37.0089 100.437 37.3616C100.791 37.7144 101.268 37.9148 101.767 37.9202L101.767 37.9202ZM115.076 50.8758C113.801 50.8638 112.583 50.3491 111.687 49.4438C110.79 48.5385 110.287 47.3157 110.287 46.0414C110.287 44.7671 110.79 43.5443 111.687 42.639C112.583 41.7337 113.801 41.2191 115.076 41.207C115.714 41.201 116.348 41.3216 116.94 41.5619C117.532 41.8021 118.07 42.1573 118.524 42.6068C118.977 43.0563 119.338 43.5912 119.583 44.1808C119.829 44.7703 119.956 45.4027 119.956 46.0414C119.956 46.6801 119.829 47.3125 119.583 47.902C119.338 48.4916 118.977 49.0265 118.524 49.4761C118.07 49.9256 117.532 50.2807 116.94 50.521C116.348 50.7612 115.714 50.8818 115.076 50.8758ZM115.062 47.9918C115.578 48.0042 116.079 47.8132 116.455 47.4601C116.832 47.107 117.055 46.6201 117.076 46.1041C117.076 45.5699 116.863 45.0577 116.486 44.6798C116.108 44.3019 115.596 44.089 115.062 44.0879C114.545 44.108 114.057 44.3307 113.703 44.708C113.349 45.0854 113.157 45.5869 113.17 46.1041C113.177 46.6035 113.378 47.0805 113.732 47.4332C114.085 47.786 114.563 47.9864 115.062 47.9918L115.062 47.9918Z" fill="#342B50"></path> <path opacity="0.3" d="M76.3493 72.207L48.7413 99.815H48.7264C41.4999 92.5891 37.4024 82.8128 37.3174 72.5938L76.3493 72.207Z" fill="url(#paint1_linear_1006_137841)"></path> <path d="M147.138 34.6393C149.388 34.6393 151.212 32.8153 151.212 30.5652C151.212 28.3152 149.388 26.4912 147.138 26.4912C144.888 26.4912 143.064 28.3152 143.064 30.5652C143.064 32.8153 144.888 34.6393 147.138 34.6393Z" fill="#7DF8C4"></path> <path d="M32.629 26.258C37.3947 26.258 41.258 22.3947 41.258 17.629C41.258 12.8633 37.3947 9 32.629 9C27.8633 9 24 12.8633 24 17.629C24 22.3947 27.8633 26.258 32.629 26.258Z" fill="#00CDA9"></path> <path d="M43.91 140.82C45.5172 140.82 46.82 139.517 46.82 137.91C46.82 136.303 45.5172 135 43.91 135C42.3029 135 41 136.303 41 137.91C41 139.517 42.3029 140.82 43.91 140.82Z" fill="#00CDA9"></path> <path d="M130.164 114.238H131.91V115.984C131.91 116.293 132.033 116.589 132.251 116.807C132.469 117.025 132.765 117.148 133.074 117.148C133.383 117.148 133.679 117.025 133.897 116.807C134.115 116.589 134.238 116.293 134.238 115.984V114.238H135.984C136.293 114.238 136.589 114.115 136.807 113.897C137.025 113.679 137.148 113.383 137.148 113.074C137.148 112.765 137.025 112.469 136.807 112.251C136.589 112.033 136.293 111.91 135.984 111.91H134.238V110.164C134.238 109.855 134.115 109.559 133.897 109.341C133.679 109.123 133.383 109 133.074 109C132.765 109 132.469 109.123 132.251 109.341C132.033 109.559 131.91 109.855 131.91 110.164V111.91H130.164C129.855 111.91 129.559 112.033 129.341 112.251C129.123 112.469 129 112.765 129 113.074C129 113.383 129.123 113.679 129.341 113.897C129.559 114.115 129.855 114.238 130.164 114.238Z" fill="#00CDA9"></path> <path d="M9.56891 93.0601H11.9223V95.4135C11.9223 95.8296 12.0876 96.2286 12.3818 96.5228C12.676 96.8171 13.0751 96.9824 13.4912 96.9824C13.9073 96.9824 14.3063 96.8171 14.6006 96.5228C14.8948 96.2286 15.0601 95.8296 15.0601 95.4135V93.0601H17.4135C17.8296 93.0601 18.2286 92.8948 18.5228 92.6006C18.8171 92.3063 18.9824 91.9073 18.9824 91.4912C18.9824 91.0751 18.8171 90.676 18.5228 90.3818C18.2286 90.0876 17.8296 89.9223 17.4135 89.9223H15.0601V87.5689C15.0601 87.1528 14.8948 86.7538 14.6006 86.4595C14.3063 86.1653 13.9073 86 13.4912 86C13.0751 86 12.676 86.1653 12.3818 86.4595C12.0876 86.7538 11.9223 87.1528 11.9223 87.5689V89.9223H9.56891C9.15281 89.9223 8.75375 90.0876 8.45952 90.3818C8.1653 90.676 8 91.0751 8 91.4912C8 91.9073 8.1653 92.3063 8.45952 92.6006C8.75375 92.8948 9.15281 93.0601 9.56891 93.0601Z" fill="#DFFDF5"></path> <defs> <linearGradient id="paint0_linear_1006_137841" x1="76.3492" y1="111.254" x2="76.3492" y2="33.1601" gradientUnits="userSpaceOnUse"> <stop stop-opacity="0.5"></stop> <stop offset="1" stop-opacity="0"></stop> </linearGradient> <linearGradient id="paint1_linear_1006_137841" x1="1871.49" y1="2939.11" x2="1871.49" y2="2016.79" gradientUnits="userSpaceOnUse"> <stop stop-opacity="0.5"></stop> <stop offset="1" stop-opacity="0"></stop> </linearGradient> </defs> </svg> 