<?xml version="1.0" encoding="UTF-8"?> <svg xmlns="http://www.w3.org/2000/svg" width="160" height="160" viewBox="0 0 160 160" fill="none"> <path d="M120.718 84.4788C120.724 90.442 119.508 96.3433 117.144 101.818H36.2634C33.6896 95.816 32.4837 89.3164 32.7333 82.7906C32.983 76.2648 34.6818 69.8763 37.7067 64.0886C40.7316 58.3008 45.0067 53.2588 50.222 49.3282C55.4372 45.3976 61.4619 42.6769 67.859 41.3635C74.2562 40.0502 80.8655 40.177 87.2075 41.7348C93.5496 43.2926 99.4654 46.2423 104.526 50.3701C109.587 54.4979 113.665 59.7002 116.466 65.5997C119.267 71.4993 120.719 77.9482 120.718 84.4788V84.4788Z" fill="#00CDA9"></path> <path opacity="0.3" d="M120.718 84.4788C120.724 90.442 119.508 96.3433 117.144 101.818H36.2634C33.6896 95.816 32.4837 89.3164 32.7333 82.7906C32.983 76.2648 34.6818 69.8763 37.7067 64.0886C40.7316 58.3008 45.0067 53.2588 50.222 49.3282C55.4372 45.3976 61.4619 42.6769 67.859 41.3635C74.2562 40.0502 80.8655 40.177 87.2075 41.7348C93.5496 43.2926 99.4654 46.2423 104.526 50.3701C109.587 54.4979 113.665 59.7002 116.466 65.5997C119.267 71.4993 120.719 77.9482 120.718 84.4788V84.4788Z" fill="url(#paint0_linear_1006_137861)"></path> <path d="M107.5 65.6415C104.315 60.3182 99.8026 55.9129 94.4044 52.8563C89.0062 49.7997 82.9071 48.1966 76.7036 48.2036V66.1162C79.7233 66.1143 82.6946 66.8755 85.3415 68.3289C87.9884 69.7824 90.2252 71.881 91.8442 74.4301C93.4631 76.9791 94.4118 79.8959 94.6022 82.9096C94.7925 85.9233 94.2183 88.9362 92.9329 91.6687H111.773C112.303 89.1711 112.571 86.6251 112.572 84.072C112.589 77.5816 110.836 71.2094 107.5 65.6415V65.6415Z" fill="#7DF8C4"></path> <path d="M76.7033 48.2022V66.1257C73.5935 66.1263 70.5374 66.9364 67.8358 68.4766C65.1342 70.0167 62.8801 72.2337 61.2953 74.9094L45.9082 65.6436C49.0926 60.3197 53.6045 55.9135 59.0025 52.8562C64.4005 49.799 70.4996 48.1953 76.7033 48.2022Z" fill="#F2AF71"></path> <path d="M61.2903 74.9123L45.9069 65.6494C42.5742 71.2151 40.8205 77.5834 40.8341 84.0706C40.8383 86.625 41.104 89.1722 41.6271 91.6724H60.4971C59.3637 89.2986 58.7757 86.7012 58.7763 84.0706C58.7793 80.8478 59.6475 77.685 61.2903 74.9123V74.9123Z" fill="#C25E57"></path> <path d="M46.8627 85.686C46.8349 85.1482 46.8208 84.6094 46.8203 84.0697C46.8189 80.7065 47.3831 77.367 48.4892 74.1909L53.7559 77.3621C53.1167 79.5407 52.7914 81.7993 52.79 84.0697C52.79 84.609 52.809 85.1477 52.847 85.686H46.8627Z" fill="#F5A692"></path> <path d="M54.6167 63.9001C58.8665 59.211 64.5114 56.0126 70.718 54.7769V60.9117C66.6303 61.9822 62.8956 64.1078 59.8878 67.0757L54.6167 63.9001Z" fill="#DD9962"></path> <path d="M76.7036 48.2022V66.1257C79.8134 66.1263 82.8695 66.9364 85.5711 68.4766C88.2727 70.0167 90.5268 72.2337 92.1116 74.9094L107.499 65.6436C104.314 60.3197 99.8024 55.9135 94.4044 52.8562C89.0064 49.799 82.9072 48.1953 76.7036 48.2022V48.2022Z" fill="white"></path> <path d="M92.7168 66.32C90.1256 63.9938 87.0646 62.252 83.7411 61.2125L82.689 60.8852V54.7124L84.5741 55.2195C89.4126 56.5233 93.8413 59.0333 97.4458 62.5146L98.8443 63.8678L93.5396 67.0609L92.7168 66.32Z" fill="#C9FCEE"></path> <path d="M82.1605 78.4909L91.7375 61.2504L88.3443 59.3643L78.7618 76.6145C76.8766 76.1148 74.8737 76.3216 73.1304 77.1961C71.3872 78.0706 70.0238 79.5523 69.2971 81.3622C68.5705 83.1721 68.5307 85.1852 69.1853 87.0224C69.8399 88.8596 71.1436 90.394 72.851 91.3366C74.5584 92.2793 76.5515 92.5651 78.455 92.1402C80.3585 91.7153 82.0409 90.6091 83.1854 89.0299C84.3299 87.4507 84.8574 85.5075 84.6686 83.5663C84.4798 81.6252 83.5878 79.82 82.1605 78.4909V78.4909Z" fill="#342B50"></path> <path d="M114.528 32.2181L99.8516 23.479L99.8524 40.834L114.528 32.2181Z" fill="#00CDA9"></path> <path d="M107.5 65.6494L92.1167 74.9123C93.61 77.4271 94.4657 80.269 94.6091 83.1902C94.7526 86.1114 94.1794 89.0234 92.9397 91.6724H111.78C112.303 89.1722 112.569 86.625 112.573 84.0706C112.586 77.5834 110.833 71.2151 107.5 65.6494V65.6494Z" fill="#7DF8C4"></path> <path d="M100.562 85.686C100.598 85.1467 100.617 84.608 100.617 84.0697C100.616 81.7993 100.291 79.5407 99.6514 77.3621L104.918 74.1909C106.024 77.367 106.588 80.7065 106.587 84.0697C106.587 84.609 106.573 85.1477 106.545 85.686H100.562Z" fill="#00CDA9"></path> <path d="M147.138 34.6393C149.388 34.6393 151.212 32.8153 151.212 30.5652C151.212 28.3152 149.388 26.4912 147.138 26.4912C144.888 26.4912 143.064 28.3152 143.064 30.5652C143.064 32.8153 144.888 34.6393 147.138 34.6393Z" fill="#7DF8C4"></path> <path d="M21.629 126.258C26.3947 126.258 30.258 122.395 30.258 117.629C30.258 112.863 26.3947 109 21.629 109C16.8633 109 13 112.863 13 117.629C13 122.395 16.8633 126.258 21.629 126.258Z" fill="#00CDA9"></path> <path d="M132.91 133.82C134.517 133.82 135.82 132.517 135.82 130.91C135.82 129.303 134.517 128 132.91 128C131.303 128 130 129.303 130 130.91C130 132.517 131.303 133.82 132.91 133.82Z" fill="#00CDA9"></path> <path d="M137.164 77.238H138.91V78.984C138.91 79.2928 139.033 79.5888 139.251 79.8071C139.469 80.0254 139.765 80.1481 140.074 80.1481C140.383 80.1481 140.679 80.0254 140.897 79.8071C141.115 79.5888 141.238 79.2928 141.238 78.984V77.238H142.984C143.293 77.238 143.589 77.1154 143.807 76.8971C144.025 76.6788 144.148 76.3827 144.148 76.074C144.148 75.7653 144.025 75.4692 143.807 75.251C143.589 75.0327 143.293 74.91 142.984 74.91H141.238V73.164C141.238 72.8553 141.115 72.5592 140.897 72.3409C140.679 72.1226 140.383 72 140.074 72C139.765 72 139.469 72.1226 139.251 72.3409C139.033 72.5592 138.91 72.8553 138.91 73.164V74.91H137.164C136.855 74.91 136.559 75.0327 136.341 75.251C136.123 75.4692 136 75.7653 136 76.074C136 76.3827 136.123 76.6788 136.341 76.8971C136.559 77.1154 136.855 77.238 137.164 77.238Z" fill="#00CDA9"></path> <path d="M14.5689 40.0601H16.9223V42.4135C16.9223 42.8296 17.0876 43.2286 17.3818 43.5228C17.676 43.8171 18.0751 43.9824 18.4912 43.9824C18.9073 43.9824 19.3063 43.8171 19.6006 43.5228C19.8948 43.2286 20.0601 42.8296 20.0601 42.4135V40.0601H22.4135C22.8296 40.0601 23.2286 39.8948 23.5228 39.6006C23.8171 39.3063 23.9824 38.9073 23.9824 38.4912C23.9824 38.0751 23.8171 37.676 23.5228 37.3818C23.2286 37.0876 22.8296 36.9223 22.4135 36.9223H20.0601V34.5689C20.0601 34.1528 19.8948 33.7538 19.6006 33.4595C19.3063 33.1653 18.9073 33 18.4912 33C18.0751 33 17.676 33.1653 17.3818 33.4595C17.0876 33.7538 16.9223 34.1528 16.9223 34.5689V36.9223H14.5689C14.1528 36.9223 13.7538 37.0876 13.4595 37.3818C13.1653 37.676 13 38.0751 13 38.4912C13 38.9073 13.1653 39.3063 13.4595 39.6006C13.7538 39.8948 14.1528 40.0601 14.5689 40.0601Z" fill="#DFFDF5"></path> <defs> <linearGradient id="paint0_linear_1006_137861" x1="76.7035" y1="101.818" x2="76.7035" y2="40.4641" gradientUnits="userSpaceOnUse"> <stop stop-opacity="0.5"></stop> <stop offset="0.14134" stop-opacity="0.2342"></stop> <stop offset="1" stop-opacity="0"></stop> </linearGradient> </defs> </svg> 