<?xml version="1.0" encoding="UTF-8"?> <svg xmlns="http://www.w3.org/2000/svg" width="160" height="160" viewBox="0 0 160 160" fill="none"> <g clip-path="url(#clip0_1006_137888)"> <path d="M118.991 75.4667V105.667C118.987 107.001 118.455 108.279 117.512 109.222C116.569 110.165 115.291 110.697 113.957 110.701H56.0725C54.7388 110.697 53.4608 110.165 52.5177 109.222C51.5746 108.279 51.043 107.001 51.0391 105.667V75.4667C51.0414 74.5497 51.2932 73.6506 51.7676 72.8658C52.242 72.0811 52.9211 71.4402 53.732 71.012C54.4516 70.6266 55.2562 70.4276 56.0725 70.4332H113.957C115.291 70.4371 116.569 70.9686 117.512 71.9118C118.455 72.8549 118.987 74.1329 118.991 75.4667Z" fill="#FFCC9E"></path> <path d="M112.568 98.1011L102.854 97.9866C102.087 97.9775 101.457 98.5924 101.448 99.36L101.39 104.278C101.381 105.045 101.996 105.675 102.763 105.684L112.477 105.799C113.244 105.808 113.874 105.193 113.883 104.425L113.941 99.5072C113.95 98.7397 113.335 98.1101 112.568 98.1011Z" fill="#F2AF71"></path> <path d="M74.9477 103.35H74.9317L59.8314 103.151C59.4975 103.146 59.1791 103.009 58.9461 102.77C58.7132 102.531 58.5847 102.209 58.589 101.875C58.5879 101.709 58.6204 101.544 58.6845 101.391C58.7486 101.238 58.843 101.099 58.962 100.983C59.081 100.867 59.2221 100.777 59.377 100.717C59.5319 100.657 59.6973 100.629 59.8633 100.634L74.9637 100.833C75.296 100.837 75.613 100.973 75.8457 101.21C76.0784 101.447 76.2078 101.767 76.2056 102.099C76.2035 102.432 76.0701 102.75 75.8344 102.984C75.5988 103.218 75.28 103.35 74.9477 103.35Z" fill="white"></path> <path d="M118.991 80.5H51.0391V88.0502H118.991V80.5Z" fill="#342B50"></path> <path opacity="0.3" d="M51.0391 100.634L88.9662 71.012C89.6858 70.6266 90.4904 70.4276 91.3067 70.4332H113.957C115.291 70.4371 116.569 70.9686 117.512 71.9118C118.455 72.8549 118.987 74.1329 118.991 75.4667L51.0391 103.151" fill="url(#paint0_linear_1006_137888)"></path> <path d="M130.915 42.9723L135.254 47.3113L135.792 32.3086L120.789 32.8458L125.079 37.136L111.151 51.0643C111.151 51.0643 117.721 56.167 130.915 42.9723Z" fill="#342B50"></path> <path d="M110.92 60.0319C102.067 68.7006 92.603 76.7228 82.6014 84.0366C72.5673 91.3724 62.0228 97.9831 51.048 103.819L31.6372 78.482C42.6118 72.6463 53.1564 66.0356 63.1906 58.7C73.1922 51.3862 82.6559 43.364 91.5089 34.6953L110.92 60.0319Z" fill="#1B8381"></path> <path d="M105.672 57.4638C97.4145 66.7019 88.505 75.3354 79.0118 83.2979C69.4875 91.2845 59.4057 98.5816 48.8432 105.134L27.791 81.1435C38.3534 74.5912 48.4352 67.2941 57.9596 59.3077C67.4528 51.3452 76.3624 42.7117 84.6196 33.4736L105.672 57.4638Z" fill="#00A38F"></path> <path d="M100.264 56.8977C92.9009 66.0952 84.83 74.7028 76.1249 82.6416C67.4236 90.5727 58.1144 97.8098 48.2827 104.287L26.0625 79.6933C35.8941 73.2162 45.2033 65.9791 53.9047 58.0482C62.61 50.1095 70.6809 41.5019 78.0435 32.3042L100.264 56.8977Z" fill="#00CDA9"></path> <path d="M32.8799 82.7745C33.2283 82.5324 33.5211 82.219 33.739 81.855C33.9569 81.491 34.0948 81.0848 34.1436 80.6634C34.1924 80.242 34.1509 79.815 34.0219 79.4109C33.893 79.0067 33.6795 78.6347 33.3956 78.3194C41.2763 72.7788 48.7996 66.7467 55.9208 60.2588C63.0285 53.7752 69.721 46.8506 75.9587 39.5262C76.2452 39.8421 76.5959 40.0931 76.9873 40.2623C77.3787 40.4315 77.8018 40.515 78.2281 40.5072C78.6545 40.4994 79.0742 40.4004 79.4592 40.217C79.8442 40.0336 80.1854 39.77 80.4601 39.4438L93.7077 54.1052C93.0103 54.9356 92.6377 55.9907 92.659 57.0749C92.6803 58.159 93.094 59.1987 93.8235 60.0011C87.6915 67.2214 81.1064 74.0443 74.1082 80.4286C67.1261 86.7902 59.7469 92.7018 52.0153 98.1278C51.2863 97.3158 50.286 96.7978 49.2022 96.671C48.1183 96.5442 47.0255 96.8173 46.1287 97.4391L32.8799 82.7745Z" fill="#00A38F"></path> <path d="M72.6892 79.6964C79.5539 73.7988 81.6517 64.9822 77.3748 60.004C73.0979 55.0257 64.0659 55.771 57.2011 61.6686C50.3364 67.5662 48.2386 76.3828 52.5155 81.3611C56.7924 86.3393 65.8245 85.5941 72.6892 79.6964Z" fill="#1B8381"></path> <path d="M68.2835 75.7573C67.4936 76.3283 66.5391 76.6261 65.5647 76.6056C64.5903 76.5851 63.6491 76.2474 62.884 75.6438L64.8652 73.878C65.3285 74.1388 65.8664 74.2353 66.3915 74.1519C66.9166 74.0684 67.3981 73.8099 67.7577 73.4183C68.6682 72.6068 68.8672 71.685 68.2154 70.9774C67.6803 70.3964 67.0694 70.3969 66.0649 70.9487L64.1517 71.967C62.5815 72.82 60.8925 73.0393 59.4583 71.4823C58.0964 70.0038 58.1818 67.9799 59.6075 66.3383L58.29 64.9079L59.9831 63.3989L61.3589 64.8926C62.1017 64.4488 62.9612 64.2396 63.8249 64.2924C64.6886 64.3452 65.5162 64.6576 66.1994 65.1886L64.2979 66.8833C63.8653 66.6567 63.3703 66.5785 62.8889 66.6606C62.4076 66.7427 61.9665 66.9806 61.6335 67.3377C60.7866 68.0925 60.6357 69.0016 61.2292 69.6458C61.7212 70.18 62.3474 70.1658 63.1785 69.7409L65.2021 68.6544C67.0204 67.6906 68.7273 67.7436 70.0308 69.1588C71.4358 70.6841 71.2782 72.6296 69.9766 74.2484L71.3816 75.7737L69.6885 77.2827L68.2835 75.7573Z" fill="white"></path> <path d="M32.074 30.1481C34.3241 30.1481 36.1481 28.3241 36.1481 26.074C36.1481 23.824 34.3241 22 32.074 22C29.824 22 28 23.824 28 26.074C28 28.3241 29.824 30.1481 32.074 30.1481Z" fill="#7DF8C4"></path> <path d="M146.986 86.8942C151.752 86.8942 155.615 83.0309 155.615 78.2652C155.615 73.4996 151.752 69.6362 146.986 69.6362C142.221 69.6362 138.357 73.4996 138.357 78.2652C138.357 83.0309 142.221 86.8942 146.986 86.8942Z" fill="#00CDA9"></path> <path d="M20.91 127.82C22.5172 127.82 23.82 126.517 23.82 124.91C23.82 123.303 22.5172 122 20.91 122C19.3029 122 18 123.303 18 124.91C18 126.517 19.3029 127.82 20.91 127.82Z" fill="#00CDA9"></path> <path d="M1.16401 65.238H2.91002V66.984C2.91002 67.2928 3.03266 67.5888 3.25095 67.8071C3.46924 68.0254 3.76531 68.1481 4.07403 68.1481C4.38274 68.1481 4.67881 68.0254 4.89711 67.8071C5.1154 67.5888 5.23804 67.2928 5.23804 66.984V65.238H6.98405C7.29276 65.238 7.58883 65.1154 7.80713 64.8971C8.02542 64.6788 8.14806 64.3827 8.14806 64.074C8.14806 63.7653 8.02542 63.4692 7.80713 63.251C7.58883 63.0327 7.29276 62.91 6.98405 62.91H5.23804V61.164C5.23804 60.8553 5.1154 60.5592 4.89711 60.3409C4.67881 60.1226 4.38274 60 4.07403 60C3.76531 60 3.46924 60.1226 3.25095 60.3409C3.03266 60.5592 2.91002 60.8553 2.91002 61.164V62.91H1.16401C0.855294 62.91 0.559224 63.0327 0.34093 63.251C0.122636 63.4692 0 63.7653 0 64.074C0 64.3827 0.122636 64.6788 0.34093 64.8971C0.559224 65.1154 0.855294 65.238 1.16401 65.238Z" fill="#00CDA9"></path> <path d="M124.569 137.06H126.922V139.413C126.922 139.83 127.088 140.229 127.382 140.523C127.676 140.817 128.075 140.982 128.491 140.982C128.907 140.982 129.306 140.817 129.601 140.523C129.895 140.229 130.06 139.83 130.06 139.413V137.06H132.413C132.83 137.06 133.229 136.895 133.523 136.601C133.817 136.306 133.982 135.907 133.982 135.491C133.982 135.075 133.817 134.676 133.523 134.382C133.229 134.088 132.83 133.922 132.413 133.922H130.06V131.569C130.06 131.153 129.895 130.754 129.601 130.46C129.306 130.165 128.907 130 128.491 130C128.075 130 127.676 130.165 127.382 130.46C127.088 130.754 126.922 131.153 126.922 131.569V133.922H124.569C124.153 133.922 123.754 134.088 123.46 134.382C123.165 134.676 123 135.075 123 135.491C123 135.907 123.165 136.306 123.46 136.601C123.754 136.895 124.153 137.06 124.569 137.06Z" fill="#DFFDF5"></path> </g> <defs> <linearGradient id="paint0_linear_1006_137888" x1="87.8055" y1="93.4715" x2="78.3704" y2="77.1295" gradientUnits="userSpaceOnUse"> <stop stop-opacity="0"></stop> <stop offset="0.14134" stop-opacity="0.2658"></stop> <stop offset="1" stop-opacity="0.5"></stop> </linearGradient> <clipPath id="clip0_1006_137888"> <rect width="160" height="160" fill="white"></rect> </clipPath> </defs> </svg> 